<mxfile host="app.diagrams.net" modified="2024-01-15T17:19:48.268Z" agent="Mozilla/5.0 (Windows NT 10.0; Win64; x64; rv:121.0) Gecko/20100101 Firefox/121.0" version="22.1.17" etag="4PcqU7x7B4IYzdL1JwUU" type="github">
  <diagram name="PÃ¡gina-1" id="SOsw7dBk4RwLvYUgztys">
    <mxGraphModel>
      <root>
        <mxCell id="0" />
        <mxCell id="1" parent="0" />
      </root>
    </mxGraphModel>
  </diagram>
</mxfile>
